<svg viewBox="0 0 52 51" fill="none" xmlns="http://www.w3.org/2000/svg">
<g clip-path="url(#clip0_59_72)">
<path fill-rule="evenodd" clip-rule="evenodd" d="M25.9228 0.00012207C11.5883 0.00012207 0.000244141 11.6876 0.000244141 26.1467C0.000244141 37.7045 7.4251 47.488 17.7253 50.9507C19.0131 51.211 19.4849 50.3881 19.4849 49.6959C19.4849 49.0897 19.4424 47.012 19.4424 44.8472C12.2314 46.4059 10.7298 41.7303 10.7298 41.7303C9.5709 38.7001 7.85384 37.9213 7.85384 37.9213C5.49367 36.3196 8.02575 36.3196 8.02575 36.3196C10.6438 36.4927 12.0176 39.0034 12.0176 39.0034C14.3347 42.9857 18.0687 41.8605 19.5708 41.1677C19.7852 39.4794 20.4723 38.3107 21.2019 37.6615C15.4506 37.0553 9.39951 34.8044 9.39951 24.7612C9.39951 21.9041 10.4289 19.5666 12.06 17.7487C11.8027 17.0995 10.9011 14.4151 12.3179 10.8222C12.3179 10.8222 14.5067 10.1295 19.4419 13.5061C21.5548 12.9338 23.7339 12.6426 25.9228 12.6402C28.1115 12.6402 30.3428 12.9435 32.4031 13.5061C37.3389 10.1295 39.5277 10.8222 39.5277 10.8222C40.9444 14.4151 40.0424 17.0995 39.785 17.7487C41.4591 19.5666 42.446 21.9041 42.446 24.7612C42.446 34.8044 36.3949 37.0118 30.6007 37.6615C31.5451 38.4839 32.3602 40.042 32.3602 42.5097C32.3602 46.0159 32.3177 48.83 32.3177 49.6954C32.3177 50.3881 32.79 51.211 34.0772 50.9512C44.3775 47.4875 51.8023 37.7045 51.8023 26.1467C51.8448 11.6876 40.2143 0.00012207 25.9228 0.00012207Z" fill="black"/>
</g>
<defs>
<clipPath id="clip0_59_72">
<rect width="52" height="51" fill="white" transform="translate(0.000244141 0.00012207)"/>
</clipPath>
</defs>
</svg>
