<svg viewBox="0 0 52 52" fill="none" xmlns="http://www.w3.org/2000/svg">
<g clip-path="url(#clip0_66_79)">
<path fill-rule="evenodd" clip-rule="evenodd" d="M46.2222 52H5.77778C2.5868 52 0 49.4132 0 46.2222V5.77778C0 2.5868 2.5868 0 5.77778 0H46.2222C49.4132 0 52 2.5868 52 5.77778V46.2222C52 49.4132 49.4132 52 46.2222 52ZM37.0613 44.7778H44.7778V28.9259C44.7778 22.2188 40.9758 18.9758 35.6652 18.9758C30.3521 18.9758 28.1162 23.1132 28.1162 23.1132V19.7407H20.6796V44.7778H28.1162V31.6349C28.1162 28.1133 29.7372 26.0177 32.84 26.0177C35.6921 26.0177 37.0613 28.0314 37.0613 31.6349V44.7778ZM7.22222 11.8423C7.22222 14.3936 9.27482 16.4623 11.8079 16.4623C14.3409 16.4623 16.3923 14.3936 16.3923 11.8423C16.3923 9.29093 14.3409 7.22222 11.8079 7.22222C9.27482 7.22222 7.22222 9.29093 7.22222 11.8423ZM15.7223 44.7778H7.96795V19.7407H15.7223V44.7778Z" fill="black"/>
</g>
<defs>
<clipPath id="clip0_66_79">
<rect width="52" height="52" fill="white"/>
</clipPath>
</defs>
</svg>
